<svg width="16" height="16" viewBox="0 0 16 16" fill="none" xmlns="http://www.w3.org/2000/svg">
<g clip-path="url(#clip0_32_5)">
<path fill-rule="evenodd" clip-rule="evenodd" d="M12.3408 8.52951C11.617 8.52951 10.9095 8.74493 10.3078 9.14852C9.70603 9.55211 9.23701 10.1258 8.96006 10.7969C8.6831 11.468 8.61063 12.2066 8.75182 12.919C8.89302 13.6315 9.24152 14.286 9.75328 14.7997C10.265 15.3133 10.917 15.6632 11.6269 15.8049C12.3367 15.9466 13.0724 15.8739 13.7411 15.5959C14.4097 15.3179 14.9812 14.8471 15.3833 14.2431C15.7854 13.6391 16 12.9289 16 12.2025C15.9989 11.2287 15.613 10.2951 14.927 9.60652C14.241 8.91795 13.3109 8.53062 12.3408 8.52951ZM11.047 14.1459C11.43 14.4027 11.8802 14.5398 12.3408 14.5398C12.9583 14.5398 13.5506 14.2936 13.9873 13.8552C14.424 13.4169 14.6694 12.8224 14.6694 12.2025C14.6694 11.7402 14.5328 11.2883 14.2769 10.9039C14.0211 10.5195 13.6574 10.22 13.2319 10.0431C12.8064 9.86615 12.3382 9.81986 11.8865 9.91005C11.4348 10.0002 11.0198 10.2228 10.6942 10.5497C10.3685 10.8766 10.1467 11.2931 10.0569 11.7465C9.96704 12.1999 10.0132 12.6699 10.1894 13.0969C10.3656 13.524 10.6641 13.8891 11.047 14.1459Z" fill="#E0C35C"/>
<path fill-rule="evenodd" clip-rule="evenodd" d="M3.65925 8.52951C2.93552 8.52951 2.22804 8.74493 1.62628 9.14852C1.02452 9.55211 0.555504 10.1258 0.278545 10.7969C0.00158551 11.468 -0.0708797 12.2066 0.070313 12.919C0.211506 13.6315 0.560015 14.286 1.07177 14.7997C1.58352 15.3133 2.23554 15.6632 2.94536 15.8049C3.65519 15.9466 4.39094 15.8739 5.05958 15.5959C5.72822 15.3179 6.29971 14.8471 6.7018 14.2431C7.10388 13.6391 7.31849 12.9289 7.31849 12.2025C7.31739 11.2287 6.93151 10.2951 6.24551 9.60652C5.5595 8.91795 4.6294 8.53062 3.65925 8.52951ZM3.65925 14.5398C3.19869 14.5398 2.74848 14.4027 2.36554 14.1459C1.9826 13.8891 1.68414 13.524 1.50789 13.0969C1.33164 12.6699 1.28553 12.1999 1.37538 11.7465C1.46523 11.2931 1.68701 10.8766 2.01267 10.5497C2.33833 10.2228 2.75325 10.0002 3.20496 9.91005C3.65666 9.81986 4.12487 9.86615 4.55037 10.0431C4.97586 10.22 5.33954 10.5195 5.59541 10.9039C5.85129 11.2883 5.98785 11.7402 5.98785 12.2025C5.98785 12.8224 5.74252 13.4169 5.30582 13.8552C4.86912 14.2936 4.27683 14.5398 3.65925 14.5398Z" fill="#6AAD9E"/>
<path fill-rule="evenodd" clip-rule="evenodd" d="M12.3096 4.43595C12.3096 3.58322 12.0572 2.74965 11.5843 2.04064C11.1114 1.33163 10.4393 0.779024 9.65288 0.452702C8.86649 0.12638 8.00117 0.0409991 7.16635 0.207357C6.33152 0.373714 5.56468 0.784338 4.96281 1.3873C4.36093 1.99027 3.95105 2.75849 3.78499 3.59483C3.61893 4.43116 3.70416 5.29805 4.02989 6.08586C4.35563 6.87367 4.90724 7.54702 5.61497 8.02077C6.3227 8.49452 7.15477 8.74738 8.00595 8.74738C9.14695 8.74608 10.2408 8.29143 11.0477 7.48316C11.8545 6.67489 12.3083 5.57901 12.3096 4.43595ZM8.00595 7.17958C7.46429 7.17958 6.93479 7.01867 6.48442 6.7172C6.03404 6.41572 5.68302 5.98722 5.47573 5.48589C5.26845 4.98456 5.21421 4.4329 5.31989 3.90069C5.42556 3.36847 5.68639 2.8796 6.06941 2.4959C6.45242 2.1122 6.9404 1.85089 7.47166 1.74503C8.00291 1.63916 8.55357 1.69349 9.054 1.90115C9.55443 2.10881 9.98215 2.46047 10.2831 2.91166C10.584 3.36285 10.7446 3.8933 10.7446 4.43595C10.7446 5.1636 10.4561 5.86146 9.94249 6.37599C9.42889 6.89052 8.73229 7.17958 8.00595 7.17958Z" fill="#E07D42"/>
</g>
<defs>
<clipPath id="clip0_32_5">
<rect width="16" height="16" fill="white"/>
</clipPath>
</defs>
</svg>
